<?xml version="1.0" standalone="no"?>
<!DOCTYPE svg PUBLIC "-//W3C//DTD SVG 20010904//EN"
 "http://www.w3.org/TR/2001/REC-SVG-20010904/DTD/svg10.dtd">
<svg version="1.0" xmlns="http://www.w3.org/2000/svg"
 width="520.000000pt" height="520.000000pt" viewBox="0 0 520.000000 520.000000"
 preserveAspectRatio="xMidYMid meet">
<metadata>
Created by potrace 1.11, written by Peter Selinger 2001-2013
</metadata>
<g transform="translate(0.000000,520.000000) scale(0.100000,-0.100000)"
fill="#000000" stroke="none">
<path d="M2408 5195 c-1 -2 -32 -6 -68 -9 -131 -12 -190 -22 -339 -57 -341
-80 -647 -222 -941 -436 -123 -90 -151 -114 -296 -258 -146 -145 -231 -249
-340 -416 -207 -315 -331 -640 -398 -1043 -21 -125 -29 -504 -13 -636 5 -36 8
-72 9 -80 0 -8 5 -37 10 -65 5 -27 11 -66 14 -85 5 -30 24 -116 39 -173 3 -9
7 -25 9 -35 14 -58 84 -253 124 -342 90 -204 220 -418 355 -587 60 -76 272
-294 352 -362 192 -164 470 -329 722 -430 93 -37 274 -95 327 -105 12 -2 50
-11 86 -19 36 -8 87 -18 113 -22 27 -3 59 -8 70 -11 97 -19 468 -26 621 -11
170 16 375 61 559 121 291 97 592 263 833 461 86 71 290 277 364 369 283 351
476 780 546 1216 4 25 8 52 10 60 20 122 26 482 11 615 -5 39 -9 77 -9 85 -1
28 -39 224 -59 305 -30 117 -84 275 -131 384 -42 95 -50 111 -123 246 -32 59
-111 185 -138 220 -4 5 -24 33 -44 60 -99 134 -291 338 -411 435 -24 19 -56
45 -70 58 -44 38 -271 187 -357 234 -186 101 -445 203 -625 244 -121 27 -202
43 -265 50 -27 3 -61 8 -75 11 -28 5 -466 13 -472 8z"/>
</g>
</svg>
